<svg xmlns="http://www.w3.org/2000/svg" xmlns:xlink="http://www.w3.org/1999/xlink" width="410" zoomAndPan="magnify" viewBox="0 0 307.5 112.499997" height="150" preserveAspectRatio="xMidYMid meet" version="1.0"><defs><g/><clipPath id="a5c693dd06"><path d="M 0.289062 2 L 115 2 L 115 73 L 0.289062 73 Z M 0.289062 2 " clip-rule="nonzero"/></clipPath><clipPath id="7552fe09c6"><rect x="0" width="115" y="0" height="71"/></clipPath><clipPath id="76f60e8080"><path d="M 152 2 L 278.414062 2 L 278.414062 73 L 152 73 Z M 152 2 " clip-rule="nonzero"/></clipPath><clipPath id="7620088ba7"><path d="M 0.492188 52 L 1 52 L 1 53 L 0.492188 53 Z M 0.492188 52 " clip-rule="nonzero"/></clipPath><clipPath id="fc2474fc49"><rect x="0" width="127" y="0" height="71"/></clipPath><clipPath id="67e05934b3"><path d="M 152 1.046875 L 175.824219 1.046875 L 175.824219 74.664062 L 152 74.664062 Z M 152 1.046875 " clip-rule="nonzero"/></clipPath><clipPath id="30b016dbda"><path d="M 107.464844 1.046875 L 132 1.046875 L 132 74.664062 L 107.464844 74.664062 Z M 107.464844 1.046875 " clip-rule="nonzero"/></clipPath><clipPath id="2c1bb9d664"><path d="M 114 1.046875 L 170 1.046875 L 170 74.664062 L 114 74.664062 Z M 114 1.046875 " clip-rule="nonzero"/></clipPath><clipPath id="b9814222f6"><path d="M 139 1.046875 L 144 1.046875 L 144 69 L 139 69 Z M 139 1.046875 " clip-rule="nonzero"/></clipPath><clipPath id="b100de679d"><rect x="0" width="279" y="0" height="75"/></clipPath></defs><g transform="matrix(1, 0, 0, 1, 14, 18)"><g clip-path="url(#b100de679d)"><g clip-path="url(#a5c693dd06)"><g transform="matrix(1, 0, 0, 1, 0, 2)"><g clip-path="url(#7552fe09c6)"><g fill="#01703b" fill-opacity="1"><g transform="translate(0.470889, 52.03961)"><g><path d="M 2.8125 0 L 2.8125 -42.109375 L 14.3125 -42.109375 C 16.375 -42.109375 18.410156 -42.039062 20.421875 -41.90625 C 22.429688 -41.71875 24.234375 -41.25 25.828125 -40.5 C 27.367188 -39.75 28.65625 -38.648438 29.6875 -37.203125 C 30.664062 -35.703125 31.179688 -33.640625 31.234375 -31.015625 C 31.328125 -28.867188 31.023438 -26.789062 30.328125 -24.78125 C 29.578125 -22.71875 28.242188 -21.054688 26.328125 -19.796875 C 25.148438 -19.046875 23.789062 -18.457031 22.25 -18.03125 C 20.65625 -17.613281 18.832031 -17.40625 16.78125 -17.40625 L 9.828125 -17.40625 L 9.828125 0 Z M 24.21875 -30.109375 C 24.164062 -31.234375 23.882812 -32.097656 23.375 -32.703125 C 22.8125 -33.316406 22.132812 -33.785156 21.34375 -34.109375 C 20.539062 -34.390625 19.671875 -34.554688 18.734375 -34.609375 C 17.753906 -34.648438 16.84375 -34.671875 16 -34.671875 L 9.828125 -34.671875 L 9.828125 -24.84375 L 14.8125 -24.84375 C 15.789062 -24.84375 16.84375 -24.890625 17.96875 -24.984375 C 19.039062 -25.035156 20.046875 -25.222656 20.984375 -25.546875 C 21.921875 -25.878906 22.691406 -26.394531 23.296875 -27.09375 C 23.910156 -27.789062 24.21875 -28.796875 24.21875 -30.109375 Z M 24.21875 -30.109375 "/></g></g></g><g fill="#01703b" fill-opacity="1"><g transform="translate(31.772626, 52.03961)"><g><path d="M 21.625 -17.40625 C 21.625 -18.4375 21.410156 -19.28125 20.984375 -19.9375 C 20.515625 -20.59375 19.929688 -21.128906 19.234375 -21.546875 C 18.523438 -21.921875 17.753906 -22.203125 16.921875 -22.390625 C 16.023438 -22.523438 15.132812 -22.59375 14.25 -22.59375 C 12.707031 -22.59375 11.28125 -22.453125 9.96875 -22.171875 C 8.65625 -21.898438 7.296875 -21.410156 5.890625 -20.703125 L 2.8125 -27.09375 C 3.46875 -27.601562 4.285156 -28.046875 5.265625 -28.421875 C 6.242188 -28.753906 7.296875 -29.035156 8.421875 -29.265625 C 9.546875 -29.503906 10.691406 -29.691406 11.859375 -29.828125 C 12.984375 -29.921875 13.988281 -29.96875 14.875 -29.96875 C 16.09375 -29.96875 17.332031 -29.898438 18.59375 -29.765625 C 19.8125 -29.578125 21.003906 -29.269531 22.171875 -28.84375 C 23.296875 -28.375 24.328125 -27.765625 25.265625 -27.015625 C 26.148438 -26.222656 26.875 -25.21875 27.4375 -24 C 28.09375 -22.507812 28.46875 -20.941406 28.5625 -19.296875 C 28.613281 -17.617188 28.640625 -16.125 28.640625 -14.8125 L 28.640625 0 L 21.625 0 L 21.625 -3.375 C 21.195312 -2.71875 20.609375 -2.15625 19.859375 -1.6875 C 19.109375 -1.164062 18.316406 -0.742188 17.484375 -0.421875 C 16.585938 -0.0976562 15.695312 0.132812 14.8125 0.28125 C 13.875 0.414062 13.03125 0.484375 12.28125 0.484375 C 9.238281 0.484375 6.757812 -0.210938 4.84375 -1.609375 C 3.625 -2.503906 2.6875 -3.648438 2.03125 -5.046875 C 1.375 -6.453125 1.070312 -8.113281 1.125 -10.03125 C 1.164062 -11.71875 1.515625 -13.125 2.171875 -14.25 C 2.828125 -15.375 3.691406 -16.285156 4.765625 -16.984375 C 5.796875 -17.679688 6.992188 -18.195312 8.359375 -18.53125 C 9.710938 -18.8125 11.113281 -18.953125 12.5625 -18.953125 C 14.0625 -18.953125 15.609375 -18.832031 17.203125 -18.59375 C 18.742188 -18.3125 20.21875 -17.914062 21.625 -17.40625 Z M 21.6875 -10.3125 C 21.6875 -10.78125 21.359375 -11.179688 20.703125 -11.515625 C 20.046875 -11.796875 19.296875 -12.03125 18.453125 -12.21875 C 17.617188 -12.351562 16.800781 -12.46875 16 -12.5625 C 15.207031 -12.613281 14.644531 -12.640625 14.3125 -12.640625 C 13.800781 -12.640625 13.195312 -12.613281 12.5 -12.5625 C 11.75 -12.519531 11.046875 -12.40625 10.390625 -12.21875 C 9.679688 -12.03125 9.097656 -11.722656 8.640625 -11.296875 C 8.171875 -10.878906 7.957031 -10.316406 8 -9.609375 C 8.050781 -9.054688 8.285156 -8.59375 8.703125 -8.21875 C 9.117188 -7.84375 9.632812 -7.5625 10.25 -7.375 C 10.851562 -7.132812 11.484375 -6.992188 12.140625 -6.953125 C 12.796875 -6.859375 13.359375 -6.8125 13.828125 -6.8125 C 14.335938 -6.8125 15.039062 -6.878906 15.9375 -7.015625 C 16.78125 -7.109375 17.644531 -7.296875 18.53125 -7.578125 C 19.375 -7.859375 20.125 -8.234375 20.78125 -8.703125 C 21.382812 -9.117188 21.6875 -9.65625 21.6875 -10.3125 Z M 21.6875 -10.3125 "/></g></g></g><g fill="#01703b" fill-opacity="1"><g transform="translate(62.092201, 52.03961)"><g><path d="M 1.609375 -22.03125 L 1.609375 -29.484375 L 6.25 -29.484375 L 6.25 -37.6875 L 13.265625 -37.6875 L 13.265625 -29.484375 L 20.640625 -29.484375 L 20.640625 -22.03125 L 13.265625 -22.03125 L 13.265625 -12.359375 C 13.265625 -10.804688 13.546875 -9.679688 14.109375 -8.984375 C 14.617188 -8.234375 15.625 -7.859375 17.125 -7.859375 C 17.875 -7.859375 18.578125 -7.953125 19.234375 -8.140625 C 19.835938 -8.328125 20.445312 -8.539062 21.0625 -8.78125 L 23.09375 -1.265625 C 21.96875 -0.609375 20.820312 -0.164062 19.65625 0.0625 C 18.476562 0.34375 17.257812 0.484375 16 0.484375 C 14.039062 0.484375 12.425781 0.226562 11.15625 -0.28125 C 9.894531 -0.789062 8.914062 -1.539062 8.21875 -2.53125 C 7.46875 -3.507812 6.953125 -4.722656 6.671875 -6.171875 C 6.390625 -7.578125 6.25 -9.191406 6.25 -11.015625 L 6.25 -22.03125 Z M 1.609375 -22.03125 "/></g></g></g><g fill="#01703b" fill-opacity="1"><g transform="translate(86.305746, 52.03961)"><g><path d="M 1.125 -14.8125 C 1.125 -16.957031 1.453125 -18.96875 2.109375 -20.84375 C 2.710938 -22.664062 3.644531 -24.28125 4.90625 -25.6875 C 6.175781 -27.039062 7.769531 -28.117188 9.6875 -28.921875 C 11.601562 -29.671875 13.847656 -30.046875 16.421875 -30.046875 C 18.671875 -30.046875 20.585938 -29.785156 22.171875 -29.265625 C 23.765625 -28.703125 25.171875 -28.070312 26.390625 -27.375 L 23.578125 -20.421875 C 22.785156 -20.941406 21.851562 -21.4375 20.78125 -21.90625 C 19.65625 -22.363281 18.226562 -22.59375 16.5 -22.59375 C 14.625 -22.59375 13.148438 -22.289062 12.078125 -21.6875 C 10.953125 -21.03125 10.109375 -20.28125 9.546875 -19.4375 C 8.941406 -18.59375 8.566406 -17.726562 8.421875 -16.84375 C 8.234375 -15.90625 8.140625 -15.132812 8.140625 -14.53125 C 8.140625 -13.914062 8.234375 -13.191406 8.421875 -12.359375 C 8.609375 -11.460938 9.003906 -10.617188 9.609375 -9.828125 C 10.222656 -9.035156 11.09375 -8.359375 12.21875 -7.796875 C 13.332031 -7.179688 14.804688 -6.875 16.640625 -6.875 C 18.273438 -6.875 19.65625 -7.085938 20.78125 -7.515625 C 21.851562 -7.890625 22.785156 -8.332031 23.578125 -8.84375 L 26.390625 -2.03125 C 25.128906 -1.28125 23.675781 -0.671875 22.03125 -0.203125 C 20.351562 0.253906 18.414062 0.484375 16.21875 0.484375 C 13.644531 0.484375 11.394531 0.0859375 9.46875 -0.703125 C 7.550781 -1.453125 5.984375 -2.53125 4.765625 -3.9375 C 3.554688 -5.289062 2.644531 -6.90625 2.03125 -8.78125 C 1.425781 -10.644531 1.125 -12.65625 1.125 -14.8125 Z M 1.125 -14.8125 "/></g></g></g></g></g></g><g clip-path="url(#76f60e8080)"><g transform="matrix(1, 0, 0, 1, 152, 2)"><g clip-path="url(#fc2474fc49)"><g clip-path="url(#7620088ba7)"><g fill="#01703b" fill-opacity="1"><g transform="translate(0.712197, 52.03961)"><g/></g></g></g><g fill="#01703b" fill-opacity="1"><g transform="translate(14.681311, 52.03961)"><g><path d="M 9.328125 -29.484375 L 14.25 -7.4375 L 19.375 -29.484375 L 28.140625 -29.484375 L 33.625 -7.4375 L 38.328125 -29.484375 L 45.6875 -29.484375 L 37.6875 0 L 27.71875 0 L 22.734375 -18.25 L 18.25 0 L 8.140625 0 L 0.0625 -29.484375 Z M 9.328125 -29.484375 "/></g></g></g><g fill="#01703b" fill-opacity="1"><g transform="translate(60.441418, 52.03961)"><g><path d="M 21.625 -17.40625 C 21.625 -18.4375 21.410156 -19.28125 20.984375 -19.9375 C 20.515625 -20.59375 19.929688 -21.128906 19.234375 -21.546875 C 18.523438 -21.921875 17.753906 -22.203125 16.921875 -22.390625 C 16.023438 -22.523438 15.132812 -22.59375 14.25 -22.59375 C 12.707031 -22.59375 11.28125 -22.453125 9.96875 -22.171875 C 8.65625 -21.898438 7.296875 -21.410156 5.890625 -20.703125 L 2.8125 -27.09375 C 3.46875 -27.601562 4.285156 -28.046875 5.265625 -28.421875 C 6.242188 -28.753906 7.296875 -29.035156 8.421875 -29.265625 C 9.546875 -29.503906 10.691406 -29.691406 11.859375 -29.828125 C 12.984375 -29.921875 13.988281 -29.96875 14.875 -29.96875 C 16.09375 -29.96875 17.332031 -29.898438 18.59375 -29.765625 C 19.8125 -29.578125 21.003906 -29.269531 22.171875 -28.84375 C 23.296875 -28.375 24.328125 -27.765625 25.265625 -27.015625 C 26.148438 -26.222656 26.875 -25.21875 27.4375 -24 C 28.09375 -22.507812 28.46875 -20.941406 28.5625 -19.296875 C 28.613281 -17.617188 28.640625 -16.125 28.640625 -14.8125 L 28.640625 0 L 21.625 0 L 21.625 -3.375 C 21.195312 -2.71875 20.609375 -2.15625 19.859375 -1.6875 C 19.109375 -1.164062 18.316406 -0.742188 17.484375 -0.421875 C 16.585938 -0.0976562 15.695312 0.132812 14.8125 0.28125 C 13.875 0.414062 13.03125 0.484375 12.28125 0.484375 C 9.238281 0.484375 6.757812 -0.210938 4.84375 -1.609375 C 3.625 -2.503906 2.6875 -3.648438 2.03125 -5.046875 C 1.375 -6.453125 1.070312 -8.113281 1.125 -10.03125 C 1.164062 -11.71875 1.515625 -13.125 2.171875 -14.25 C 2.828125 -15.375 3.691406 -16.285156 4.765625 -16.984375 C 5.796875 -17.679688 6.992188 -18.195312 8.359375 -18.53125 C 9.710938 -18.8125 11.113281 -18.953125 12.5625 -18.953125 C 14.0625 -18.953125 15.609375 -18.832031 17.203125 -18.59375 C 18.742188 -18.3125 20.21875 -17.914062 21.625 -17.40625 Z M 21.6875 -10.3125 C 21.6875 -10.78125 21.359375 -11.179688 20.703125 -11.515625 C 20.046875 -11.796875 19.296875 -12.03125 18.453125 -12.21875 C 17.617188 -12.351562 16.800781 -12.46875 16 -12.5625 C 15.207031 -12.613281 14.644531 -12.640625 14.3125 -12.640625 C 13.800781 -12.640625 13.195312 -12.613281 12.5 -12.5625 C 11.75 -12.519531 11.046875 -12.40625 10.390625 -12.21875 C 9.679688 -12.03125 9.097656 -11.722656 8.640625 -11.296875 C 8.171875 -10.878906 7.957031 -10.316406 8 -9.609375 C 8.050781 -9.054688 8.285156 -8.59375 8.703125 -8.21875 C 9.117188 -7.84375 9.632812 -7.5625 10.25 -7.375 C 10.851562 -7.132812 11.484375 -6.992188 12.140625 -6.953125 C 12.796875 -6.859375 13.359375 -6.8125 13.828125 -6.8125 C 14.335938 -6.8125 15.039062 -6.878906 15.9375 -7.015625 C 16.78125 -7.109375 17.644531 -7.296875 18.53125 -7.578125 C 19.375 -7.859375 20.125 -8.234375 20.78125 -8.703125 C 21.382812 -9.117188 21.6875 -9.65625 21.6875 -10.3125 Z M 21.6875 -10.3125 "/></g></g></g><g fill="#01703b" fill-opacity="1"><g transform="translate(90.760993, 52.03961)"><g><path d="M 25.34375 -29.484375 L 32.359375 -29.484375 L 32.359375 -1.125 C 32.359375 3.925781 30.953125 7.71875 28.140625 10.25 C 25.335938 12.820312 21.457031 14.109375 16.5 14.109375 C 14.019531 14.109375 11.609375 13.734375 9.265625 12.984375 C 6.921875 12.285156 4.722656 11.28125 2.671875 9.96875 L 5.46875 2.8125 C 6.96875 3.976562 8.703125 4.890625 10.671875 5.546875 C 12.628906 6.242188 14.570312 6.59375 16.5 6.59375 C 19.257812 6.59375 21.429688 5.890625 23.015625 4.484375 C 24.566406 3.128906 25.34375 1.050781 25.34375 -1.75 L 25.34375 -3.578125 C 24.914062 -2.878906 24.328125 -2.269531 23.578125 -1.75 C 22.828125 -1.238281 22.035156 -0.816406 21.203125 -0.484375 C 20.359375 -0.160156 19.488281 0.0664062 18.59375 0.203125 C 17.664062 0.390625 16.800781 0.484375 16 0.484375 C 11.226562 0.484375 7.742188 -0.894531 5.546875 -3.65625 C 3.296875 -6.414062 2.171875 -10.109375 2.171875 -14.734375 L 2.171875 -29.484375 L 9.40625 -29.484375 L 9.40625 -15.515625 C 9.40625 -14.898438 9.472656 -14.125 9.609375 -13.1875 C 9.703125 -12.207031 10.007812 -11.273438 10.53125 -10.390625 C 11 -9.453125 11.75 -8.65625 12.78125 -8 C 13.800781 -7.300781 15.203125 -6.925781 16.984375 -6.875 C 19.609375 -6.96875 21.664062 -7.691406 23.15625 -9.046875 C 24.613281 -10.410156 25.34375 -12.445312 25.34375 -15.15625 Z M 25.34375 -29.484375 "/></g></g></g></g></g></g><g clip-path="url(#67e05934b3)"><path fill="#01703b" d="M 176.902344 74.464844 L 173.367188 74.464844 L 152.699219 1.082031 L 153.890625 1.082031 Z M 176.902344 74.464844 " fill-opacity="1" fill-rule="nonzero"/></g><g clip-path="url(#30b016dbda)"><path fill="#01703b" d="M 131.660156 1.082031 L 110.992188 74.464844 L 107.460938 74.464844 L 130.46875 1.082031 Z M 131.660156 1.082031 " fill-opacity="1" fill-rule="nonzero"/></g><g clip-path="url(#2c1bb9d664)"><path fill="#01703b" d="M 169.164062 74.464844 L 114.53125 74.464844 L 132.851562 1.082031 L 151.28125 1.082031 Z M 169.164062 74.464844 " fill-opacity="1" fill-rule="nonzero"/></g><g clip-path="url(#b9814222f6)"><path fill="#ffffff" d="M 142.835938 1.933594 L 141.328125 1.933594 L 141.269531 4.558594 L 142.882812 4.558594 Z M 142.90625 5.960938 L 141.234375 5.960938 L 141.167969 9.1875 L 142.964844 9.1875 Z M 142.988281 10.9375 L 141.121094 10.9375 L 141.03125 15.007812 L 143.054688 15.007812 L 142.984375 10.9375 Z M 143.101562 17.238281 L 140.988281 17.238281 L 140.871094 22.53125 L 143.195312 22.53125 Z M 143.246094 25.492188 L 140.800781 25.492188 L 140.640625 32.644531 L 143.367188 32.644531 Z M 143.433594 36.746094 L 140.550781 36.746094 L 140.320312 46.957031 L 143.605469 46.957031 L 143.429688 36.746094 Z M 143.71875 53.011719 L 140.1875 53.011719 L 139.839844 68.777344 L 143.988281 68.777344 Z M 143.71875 53.011719 " fill-opacity="1" fill-rule="nonzero"/></g></g></g></svg>