<svg xmlns="http://www.w3.org/2000/svg" version="1.1" xmlns:xlink="http://www.w3.org/1999/xlink" width="1000" height="1000"><metadata><rdf:RDF xmlns:rdf="http://www.w3.org/1999/02/22-rdf-syntax-ns#" xmlns:dc="http://purl.org/dc/elements/1.1/"><rdf:Description><dc:creator>RealFaviconGenerator</dc:creator><dc:source>https://realfavicongenerator.net</dc:source></rdf:Description></rdf:RDF></metadata><g clip-path="url(#SvgjsClipPath1241)"><rect width="1000" height="1000" fill="#000000"></rect><g transform="matrix(1.953125,0,0,1.953125,0,0)"><svg xmlns="http://www.w3.org/2000/svg" version="1" xmlns:xlink="http://www.w3.org/1999/xlink" width="512" zoomAndPan="magnify" viewBox="0 0 384 383.999986" height="512" preserveAspectRatio="xMidYMid meet"><defs><clipPath id="5a137eb5fb"><path d="M 232 20 L 345.710938 20 L 345.710938 364 L 232 364 Z M 232 20 " clip-rule="nonzero"></path></clipPath><clipPath id="a9ff2c3c74"><path d="M 20.210938 20 L 134 20 L 134 364 L 20.210938 364 Z M 20.210938 20 " clip-rule="nonzero"></path></clipPath><clipPath id="SvgjsClipPath1241"><rect width="1000" height="1000" x="0" y="0" rx="150" ry="150"></rect></clipPath></defs><rect x="-38.4" width="460.8" fill="#ffffff" y="-38.399999" height="460.799983" fill-opacity="1"></rect><rect x="-38.4" width="460.8" fill="#000000" y="-38.399999" height="460.799983" fill-opacity="1"></rect><g clip-path="url(#5a137eb5fb)"><path fill="#01703b" d="M 345.625 363.949219 L 329.066406 363.949219 L 232.203125 20.042969 L 237.792969 20.042969 Z M 345.625 363.949219 " fill-opacity="1" fill-rule="nonzero"></path></g><g clip-path="url(#a9ff2c3c74)"><path fill="#01703b" d="M 133.597656 20.042969 L 36.734375 363.949219 L 20.175781 363.949219 L 128.007812 20.042969 Z M 133.597656 20.042969 " fill-opacity="1" fill-rule="nonzero"></path></g><path fill="#01703b" d="M 309.363281 363.949219 L 53.328125 363.949219 L 139.1875 20.042969 L 225.554688 20.042969 Z M 309.363281 363.949219 " fill-opacity="1" fill-rule="nonzero"></path><path fill="#ffffff" d="M 185.976562 24.023438 L 178.902344 24.023438 L 178.628906 36.328125 L 186.199219 36.328125 Z M 186.300781 42.90625 L 178.472656 42.90625 L 178.148438 58.03125 L 186.574219 58.03125 Z M 186.695312 66.234375 L 177.945312 66.234375 L 177.515625 85.304688 L 187.003906 85.304688 L 186.675781 66.234375 Z M 187.222656 95.765625 L 177.3125 95.765625 L 176.765625 120.5625 L 187.652344 120.5625 Z M 187.890625 134.4375 L 176.441406 134.4375 L 175.6875 167.96875 L 188.453125 167.96875 Z M 188.777344 187.175781 L 175.261719 187.175781 L 174.183594 235.042969 L 189.582031 235.042969 L 188.761719 187.175781 Z M 190.113281 263.414062 L 173.570312 263.414062 L 171.929688 337.308594 L 191.375 337.308594 Z M 190.113281 263.414062 " fill-opacity="1" fill-rule="nonzero"></path></svg></g></g></svg>